# xmcd CD database file
#
# Track frame offsets:
#	150
#	18915
#	41395
#	63405
#	81220
#	102095
#	124040
#	144100
#	161277
#	179912
#
# Disc length: 2687 seconds
#
# Revision: 3
# Processed by: cddbd v1.5.2PL0 Copyright (c) Steve Scherf et al.
# Submitted via: CDex 1.70beta2
#
DISCID=770a7d0a
DTITLE=蘇永康 - 解脫書
DYEAR=1998
DGENRE=Jazz
TTITLE0=飢餓
TTITLE1=讓懂你的人愛你
TTITLE2=一個人不如兩個人
TTITLE3=收回妳愛我的權利
TTITLE4=我想得太美
TTITLE5=就算我們真的合不來
TTITLE6=相信你的直覺
TTITLE7=談談情跳跳舞
TTITLE8=記得相愛的理由
TTITLE9=白日夢 
EXTD=YEAR: 1998
EXTT0=
EXTT1=
EXTT2=
EXTT3=
EXTT4=
EXTT5=
EXTT6=
EXTT7=
EXTT8=
EXTT9=
PLAYORDER=
